<?xml version="1.0" encoding="UTF-8"?>
<svg version="1.1" xmlns="http://www.w3.org/2000/svg" width="1081" height="1081">
<path d="M0 0 C1.18078125 -0.01546875 2.3615625 -0.0309375 3.578125 -0.046875 C19.36115388 0.02265376 32.19975544 6.18369899 43.61328125 16.8984375 C61.16815621 36.03353852 61.89088796 61.04823334 61 85.5 C60.0838248 103.05104265 53.49004257 120.04819555 40.50390625 132.171875 C40.00761719 132.61015625 39.51132812 133.0484375 39 133.5 C43.32652032 138.04078608 48.07209245 141.73952432 53.09179688 145.48242188 C58.71389696 149.78167488 58.71389696 149.78167488 60 153.5 C56.54278553 156.98858666 53.03650363 160.40628036 49.4375 163.75 C48.50808594 164.62140625 47.57867188 165.4928125 46.62109375 166.390625 C42.60972649 169.61884902 42.60972649 169.61884902 40 169.5 C37.6903181 168.00083972 35.71400235 166.51616446 33.625 164.75 C32.38168887 163.73676015 31.13819365 162.72374617 29.89453125 161.7109375 C29.25596191 161.18338867 28.61739258 160.65583984 27.95947266 160.11230469 C24.77578384 157.49268334 21.54626857 154.93233004 18.3125 152.375 C17.72484863 151.90223633 17.13719727 151.42947266 16.53173828 150.94238281 C11.64015314 147.05717296 8.72704021 146.40443487 2.5625 146.5625 C-13.00012478 146.62641222 -27.26946618 143.15598111 -39 132.5 C-39.67546875 131.92765625 -40.3509375 131.3553125 -41.046875 130.765625 C-56.22747849 116.99717067 -60.15622738 96.53167975 -61.1875 76.9375 C-61.60214761 54.13188135 -57.05090942 32.13298197 -41.125 15.0625 C-29.12835915 3.99050143 -16.1333226 -0.21135357 0 0 Z M-21 35.5 C-26.47091108 44.33109372 -29.30214901 53.10380836 -29.3359375 63.48046875 C-29.3425943 64.21517899 -29.3492511 64.94988922 -29.35610962 65.7068634 C-29.3661647 67.25222297 -29.37092887 68.79762533 -29.37060547 70.34301758 C-29.3749578 72.66498371 -29.4112925 74.98501207 -29.44921875 77.30664062 C-29.55263901 90.88261218 -27.25743614 103.92994231 -18 114.5 C-11.38181149 120.04380726 -4.8056466 121.37799169 3.703125 120.94140625 C12.02211675 119.82760759 16.96930644 116.44266294 22.27734375 109.984375 C29.75908456 99.19438145 30.3753958 85.90323314 30.3125 73.1875 C30.30686035 71.99705078 30.3012207 70.80660156 30.29541016 69.58007812 C30.10791293 56.013447 28.53433475 43.31715913 19.37109375 32.59375 C14.08716284 27.59179221 7.70745158 25.42635686 0.5 25.125 C-8.29840901 25.50753952 -15.31542326 28.70244297 -21 35.5 Z " fill="#FF0000" transform="translate(856,457.5)"/>
<path d="M0 0 C2.62219224 2.12871694 4.81176553 4.4371493 7 7 C7.99193123 8.00800419 8.98952966 9.01058113 10 10 C10.26554688 9.40316406 10.53109375 8.80632812 10.8046875 8.19140625 C14.2635627 1.85013505 20.38648461 -0.94005258 27 -3 C27.85851562 -3.27650391 27.85851562 -3.27650391 28.734375 -3.55859375 C39.01272163 -5.56109921 52.14595303 -5.09804906 61.234375 0.3359375 C67.87600232 5.45448487 72.45466498 13.76692775 74 22 C74.0893241 24.66963556 74.12628013 27.31227549 74.11352539 29.98144531 C74.11367142 30.7818222 74.11381744 31.5821991 74.1139679 32.40682983 C74.1132723 35.04728931 74.1054964 37.68767788 74.09765625 40.328125 C74.09579082 42.16086793 74.09436751 43.99361137 74.09336853 45.82635498 C74.08955322 50.64649842 74.07973133 55.46661165 74.06866455 60.28674316 C74.05842925 65.20678295 74.05386637 70.12682763 74.04882812 75.046875 C74.03810819 84.69793206 74.02051935 94.34895879 74 104 C64.43 104 54.86 104 45 104 C44.93941406 99.93816406 44.87882813 95.87632812 44.81640625 91.69140625 C44.76524736 88.40191823 44.71334774 85.11244371 44.66095734 81.82297516 C44.60629979 78.37867224 44.55287146 74.93436146 44.50268555 71.48999023 C46.23452189 46.95832009 46.23452189 46.95832009 41 24 C37.02257495 21.09342016 31.66084338 20.69128336 26.87890625 21.24609375 C21.80534119 22.32986096 17.84481077 24.20579488 14.88711548 28.68560791 C13.65633437 31.89658792 13.71670218 34.71878951 13.68115234 38.15527344 C13.67110672 38.86786819 13.6610611 39.58046295 13.65071106 40.31465149 C13.61989535 42.66288469 13.60284865 45.01100395 13.5859375 47.359375 C13.56722453 48.99034606 13.54765102 50.62130745 13.5272522 52.2522583 C13.47593853 56.53967589 13.43630876 60.82712487 13.39910889 65.11468506 C13.35906442 69.49190022 13.3079741 73.86898491 13.2578125 78.24609375 C13.1610622 86.8306466 13.07767573 95.41525334 13 104 C3.43 104 -6.14 104 -16 104 C-16.06058594 100.42929687 -16.12117187 96.85859375 -16.18359375 93.1796875 C-16.24576793 89.64126252 -16.30899415 86.10285776 -16.37231445 82.56445312 C-16.41507524 80.14422481 -16.45677813 77.72397753 -16.49731445 75.30371094 C-16.63347018 67.20160447 -16.80095471 59.1008041 -17 51 C-17.0245929 49.91481079 -17.04918579 48.82962158 -17.07452393 47.71154785 C-17.1494092 44.66372316 -17.24482447 41.61730724 -17.34765625 38.5703125 C-17.36799423 37.67045624 -17.38833221 36.77059998 -17.4092865 35.84347534 C-17.59401538 31.12534036 -17.90938221 27.80404876 -21 24 C-24.64396001 21.57069333 -26.53912081 21.70125015 -30.875 21.6875 C-32.08929687 21.67074219 -33.30359375 21.65398438 -34.5546875 21.63671875 C-39.18961198 22.12543528 -41.52087727 23.84366653 -45.10992432 26.6494751 C-47.63815647 29.79362043 -47.57421984 32.47142248 -47.54589844 36.33886719 C-47.55623611 37.07096909 -47.56657379 37.80307098 -47.57722473 38.55735779 C-47.60665967 40.97075452 -47.60815197 43.38331286 -47.609375 45.796875 C-47.62435627 47.47269287 -47.64108331 49.14849598 -47.65948486 50.82427979 C-47.70317694 55.23012977 -47.72316147 59.63578059 -47.73822021 64.04180908 C-47.75778469 68.53971137 -47.7997554 73.03739835 -47.83984375 77.53515625 C-47.91516587 86.35670445 -47.96544515 95.17820451 -48 104 C-52.1117256 104.02465746 -56.22342278 104.04283959 -60.33520508 104.05493164 C-61.73495228 104.0599708 -63.1346942 104.06680216 -64.53442383 104.07543945 C-66.54245777 104.0875232 -68.55052957 104.09269807 -70.55859375 104.09765625 C-71.76829834 104.10289307 -72.97800293 104.10812988 -74.22436523 104.11352539 C-77 104 -77 104 -78 103 C-78.09535213 101.63391674 -78.1218867 100.26294545 -78.12025452 98.89353943 C-78.12162918 98.00867859 -78.12300385 97.12381775 -78.12442017 96.21214294 C-78.12082489 95.23391068 -78.11722961 94.25567841 -78.11352539 93.24780273 C-78.11367142 92.2235318 -78.11381744 91.19926086 -78.1139679 90.14395142 C-78.11326828 86.74047771 -78.10547363 83.33705796 -78.09765625 79.93359375 C-78.09579224 77.58089732 -78.09436826 75.2282005 -78.09336853 72.87550354 C-78.08954199 66.66943295 -78.07971055 60.4633856 -78.06866455 54.25732422 C-78.05845334 47.93001622 -78.05387154 41.60270448 -78.04882812 35.27539062 C-78.0380884 22.85024854 -78.02049051 10.42512983 -78 -2 C-68.76 -2 -59.52 -2 -50 -2 C-49.34 0.64 -48.68 3.28 -48 6 C-47.39414062 5.52949219 -46.78828125 5.05898438 -46.1640625 4.57421875 C-33.28536504 -4.99564413 -14.60723697 -8.51676189 0 0 Z " fill="#000000" transform="translate(651,498)"/>
<path d="M0 0 C9.9 0 19.8 0 30 0 C31.74300973 1.74300973 31.17006086 4.15695189 31.20532227 6.52954102 C31.22526749 7.71068985 31.24521271 8.89183868 31.26576233 10.10877991 C31.28247482 11.3941716 31.29918732 12.67956329 31.31640625 14.00390625 C31.33718735 15.31205795 31.35796844 16.62020966 31.37937927 17.96800232 C31.434663 21.45155447 31.48404431 24.9351666 31.53222656 28.41882324 C31.58239574 31.9713273 31.63810567 35.5237439 31.69335938 39.07617188 C31.80101791 46.05070546 31.90244567 53.02531798 32 60 C32.55634628 59.22578453 32.55634628 59.22578453 33.12393188 58.43592834 C34.82354164 56.0722569 36.52503622 53.70994838 38.2265625 51.34765625 C38.80994385 50.53574829 39.3933252 49.72384033 39.99438477 48.8873291 C44.16210921 43.10501472 48.48759732 37.51739214 53 32 C57.58203266 26.21271612 62.01577799 20.32224681 66.3984375 14.3828125 C66.79522705 13.8885376 67.1920166 13.3942627 67.60083008 12.88500977 C69.12646928 10.90453235 69.12646928 10.90453235 70.6237793 8.19116211 C75.48657199 0.72405372 75.48657199 0.72405372 79.98779297 -0.57263184 C85.67013606 -1.37428628 91.35437623 -1.00296461 97.0625 -0.6875 C98.80388144 -0.63224634 100.54543178 -0.58206961 102.28710938 -0.53710938 C106.5289512 -0.41663106 110.76259655 -0.22733875 115 0 C113.84243082 3.13340279 112.68998101 5.69672027 110.56640625 8.27734375 C109.84916382 9.15990845 109.84916382 9.15990845 109.11743164 10.06030273 C108.6043042 10.67977783 108.09117676 11.29925293 107.5625 11.9375 C106.46812387 13.28074012 105.37438743 14.62450163 104.28125 15.96875 C103.72953125 16.64421875 103.1778125 17.3196875 102.609375 18.015625 C100.22174349 20.95959784 97.89228808 23.94770555 95.5625 26.9375 C92.12395086 31.33599307 88.63888721 35.69231605 85.10742188 40.01660156 C83.4595544 42.03548014 81.81896219 44.06007873 80.1796875 46.0859375 C78.10302994 48.65226508 76.00191436 51.19522595 73.8828125 53.7265625 C72.9419079 54.8795556 72.00176174 56.03316819 71.0625 57.1875 C70.22847656 58.19167969 69.39445312 59.19585938 68.53515625 60.23046875 C66.6905648 62.85124578 66.6905648 62.85124578 67.50390625 65.4765625 C69.24796295 68.41823515 71.00600527 71.32239269 72.875 74.1875 C73.26864746 74.79279541 73.66229492 75.39809082 74.06787109 76.02172852 C77.71125303 81.60537719 81.421093 87.1452262 85.12988281 92.68554688 C89.99557591 99.96425768 94.776342 107.29733055 99.54199219 114.6418457 C102.37042941 118.99506772 105.21016038 123.33571354 108.140625 127.62109375 C108.60774902 128.3066333 109.07487305 128.99217285 109.55615234 129.69848633 C110.40352971 130.93629728 111.25749812 132.1696359 112.11962891 133.3972168 C114.32319593 136.62013725 115.35584581 139.17780349 116 143 C84.93672306 146.007459 84.93672306 146.007459 77.22998047 141.3125 C73.18893288 137.05450282 71.094456 132.0913667 69.09155273 126.6418457 C67.0543037 121.71116536 63.9611938 117.41549672 61 113 C59.67747073 110.98888246 58.35587075 108.97715353 57.03515625 106.96484375 C55.02431382 103.91192928 53.01142617 100.86052822 50.99023438 97.81445312 C50.34505859 96.83283203 49.69988281 95.85121094 49.03515625 94.83984375 C48.4512915 93.95675537 47.86742676 93.07366699 47.26586914 92.16381836 C46 90 46 90 46 88 C44.78581941 89.01387161 43.57902985 90.03659442 42.375 91.0625 C41.70210937 91.63097656 41.02921875 92.19945312 40.3359375 92.78515625 C39.56507813 93.51605469 38.79421875 94.24695313 38 95 C37.25078529 95.70147911 37.25078529 95.70147911 36.48643494 96.41712952 C31.82570467 101.22365489 31.13442546 104.83625705 31.23046875 111.3984375 C31.21913406 112.27400299 31.20779938 113.14956848 31.19612122 114.05166626 C31.1655578 116.82672561 31.17521196 119.59983077 31.1875 122.375 C31.17334019 125.17096199 31.15101962 127.96672584 31.12532043 130.76260376 C31.11225363 132.49756605 31.10754461 134.23261473 31.11186218 135.96762085 C31.10745313 141.89254687 31.10745313 141.89254687 30 143 C20.1 143 10.2 143 0 143 C0 95.81 0 48.62 0 0 Z " fill="#000000" transform="translate(164,459)"/>
<path d="M0 0 C6.50423782 5.1366249 11.35855206 11.76944602 13.359375 19.86328125 C13.86599344 24.98314646 13.94007846 30.09848454 14.01953125 35.23828125 C14.0538142 36.73229378 14.08960208 38.22627245 14.1268158 39.72021484 C14.22153588 43.63612403 14.30115566 47.55216987 14.37591553 51.46850586 C14.49618254 57.73516797 14.63124176 64.0013962 14.78207207 70.26739502 C14.83101265 72.44300021 14.86838105 74.61858791 14.90480042 76.79443359 C15.01630116 84.73362714 15.01630116 84.73362714 16.45483398 92.51171875 C17.359375 95.86328125 17.359375 95.86328125 16.359375 100.86328125 C6.789375 100.86328125 -2.780625 100.86328125 -12.640625 100.86328125 C-13.630625 98.55328125 -14.620625 96.24328125 -15.640625 93.86328125 C-16.5996875 94.72953125 -16.5996875 94.72953125 -17.578125 95.61328125 C-26.7541829 102.35487481 -36.47729657 103.62634421 -47.640625 102.86328125 C-56.03422544 101.40244813 -64.71762995 97.43389507 -70.515625 91.05078125 C-76.81163109 81.60677211 -77.9600145 73.07392552 -76.640625 61.86328125 C-74.48588168 52.69121876 -69.89287006 47.06089447 -62.015625 42.17578125 C-50.62893782 35.83896394 -38.94368995 34.67982206 -26.140625 34.80078125 C-25.2228125 34.80529297 -24.305 34.80980469 -23.359375 34.81445312 C-21.11972109 34.82611799 -18.88020955 34.84248511 -16.640625 34.86328125 C-17.37577428 26.35034815 -17.37577428 26.35034815 -20.640625 18.61328125 C-25.88843568 15.55205835 -31.13023208 15.35190491 -37.015625 16.55078125 C-41.21898849 18.65246299 -43.17301197 20.53947535 -44.75 25.00390625 C-45.19085938 26.41929687 -45.19085938 26.41929687 -45.640625 27.86328125 C-49.60993489 27.88794006 -53.57921534 27.90612148 -57.54858398 27.91821289 C-58.89982886 27.92325182 -60.25106826 27.93008302 -61.60229492 27.9387207 C-63.54082934 27.95080544 -65.479403 27.95597953 -67.41796875 27.9609375 C-69.16968384 27.96879272 -69.16968384 27.96879272 -70.95678711 27.97680664 C-73.640625 27.86328125 -73.640625 27.86328125 -74.640625 26.86328125 C-74.72482804 18.22404925 -72.38053982 11.5596635 -66.515625 5.23828125 C-49.5385726 -10.51584788 -19.45007004 -12.48149399 0 0 Z M-43.640625 58.86328125 C-46.79359538 62.33963321 -47.97322397 64.79709306 -47.765625 69.42578125 C-47.15564289 73.00716135 -46.56181427 73.95554747 -44.078125 76.86328125 C-38.26466592 80.24565744 -33.86432183 80.39272175 -27.515625 78.80078125 C-22.82795492 77.5020661 -19.26857835 74.96036719 -16.640625 70.86328125 C-15.94676232 67.69321836 -16.06501357 64.71349579 -16.265625 61.48828125 C-16.29269531 60.65683594 -16.31976563 59.82539062 -16.34765625 58.96875 C-16.41787306 56.93246237 -16.52547925 54.89752292 -16.640625 52.86328125 C-26.23086546 52.53509812 -35.99129988 52.30671687 -43.640625 58.86328125 Z " fill="#000000" transform="translate(467.640625,501.13671875)"/>
<path d="M0 0 C7.30809196 6.1255528 11.26945009 15.00073724 12.2197876 24.35998535 C12.59227501 29.46667899 12.59215343 34.57713801 12.625 39.6953125 C12.65306962 42.1588608 12.68173409 44.62240238 12.7109375 47.0859375 C12.75209959 50.92773234 12.78903477 54.76940183 12.81542969 58.61132812 C12.84325735 62.34791185 12.88912156 66.08394549 12.9375 69.8203125 C12.94075287 70.94991394 12.94400574 72.07951538 12.94735718 73.24334717 C13.05323028 80.21655544 13.99760776 86.50534756 15.77456665 93.25323486 C16.4140625 96.0234375 16.4140625 96.0234375 16.4140625 100.0234375 C6.5140625 100.0234375 -3.3859375 100.0234375 -13.5859375 100.0234375 C-15.5859375 96.0234375 -15.5859375 96.0234375 -15.5859375 93.0234375 C-16.34777344 93.50554687 -17.10960937 93.98765625 -17.89453125 94.484375 C-29.11841734 101.35042267 -39.10726676 103.80227034 -52.32421875 101.55859375 C-61.388171 99.17631081 -69.42151267 93.91919947 -74.5859375 86.0234375 C-79.45031628 77.30998641 -79.91885497 68.36961827 -77.4609375 58.7734375 C-74.03872244 48.88703844 -67.35689508 43.45405601 -58.2421875 38.8359375 C-45.30644816 33.1240526 -31.41867046 33.77519304 -17.5859375 34.0234375 C-17.89639482 32.1064389 -18.20938421 30.18985027 -18.5234375 28.2734375 C-18.69746094 27.20609375 -18.87148438 26.13875 -19.05078125 25.0390625 C-19.63377221 21.48256593 -19.63377221 21.48256593 -20.5859375 18.0234375 C-22.94779889 16.76197982 -22.94779889 16.76197982 -25.5859375 16.0234375 C-26.5759375 15.6934375 -27.5659375 15.3634375 -28.5859375 15.0234375 C-34.03759441 14.60407928 -37.90479122 15.10876152 -42.5859375 18.0234375 C-43.84174419 20.19905628 -43.84174419 20.19905628 -44.79296875 22.65234375 C-45.13432861 23.46904541 -45.47568848 24.28574707 -45.82739258 25.12719727 C-46.0777124 25.75295654 -46.32803223 26.37871582 -46.5859375 27.0234375 C-50.53693678 27.048136 -54.48790624 27.06629673 -58.43896484 27.07836914 C-60.44500301 27.08587786 -62.45101952 27.0985822 -64.45703125 27.11132812 C-66.34228516 27.11616211 -66.34228516 27.11616211 -68.265625 27.12109375 C-70.00948486 27.12894897 -70.00948486 27.12894897 -71.78857422 27.13696289 C-74.5859375 27.0234375 -74.5859375 27.0234375 -76.5859375 26.0234375 C-75.45681388 15.78345429 -72.3863376 7.81463164 -64.2734375 1.1484375 C-46.36868214 -11.57651405 -18.20064816 -12.43099024 0 0 Z M-45.5859375 58.0234375 C-48.31721797 62.46176826 -49.15358042 66.10326974 -48.2109375 71.16015625 C-47.0700519 74.56142144 -45.51376503 76.01055607 -42.5859375 78.0234375 C-36.40408996 80.13370674 -31.14239508 78.62593206 -25.1640625 76.51953125 C-21.81774529 74.57765323 -19.38402118 72.44275174 -17.5859375 69.0234375 C-17.0210625 66.02777104 -17.106296 63.18269853 -17.2734375 60.1484375 C-17.29599609 59.3646875 -17.31855469 58.5809375 -17.34179688 57.7734375 C-17.40025732 55.8559349 -17.48992467 53.9394269 -17.5859375 52.0234375 C-27.53489786 51.68297878 -37.36707469 51.81735742 -45.5859375 58.0234375 Z " fill="#000000" transform="translate(362.5859375,501.9765625)"/>
<path d="M0 0 C0.02912348 3.72915017 0.04684037 7.4582709 0.0625 11.1875 C0.07087891 12.24259766 0.07925781 13.29769531 0.08789062 14.38476562 C0.09111328 15.40634766 0.09433594 16.42792969 0.09765625 17.48046875 C0.10289307 18.41785889 0.10812988 19.35524902 0.11352539 20.32104492 C0.00082657 22.98049477 -0.40623351 25.40920573 -1 28 C-2.918125 28.02126953 -2.918125 28.02126953 -4.875 28.04296875 C-6.58336796 28.08990194 -8.29170017 28.13814912 -10 28.1875 C-11.25876953 28.19620117 -11.25876953 28.19620117 -12.54296875 28.20507812 C-18.78082374 28.42267772 -23.20473067 29.91359018 -28 34 C-30.42890968 37.64336451 -30.27206194 39.42308306 -30.31884766 43.76635742 C-30.32889328 44.44954544 -30.3389389 45.13273346 -30.34928894 45.83662415 C-30.38015886 48.09289719 -30.39716632 50.34905137 -30.4140625 52.60546875 C-30.43277112 54.17060878 -30.45234431 55.73573869 -30.4727478 57.30085754 C-30.52410748 61.41895588 -30.56371256 65.53708694 -30.60089111 69.65533447 C-30.64090679 73.85819619 -30.69201022 78.06092137 -30.7421875 82.26367188 C-30.83899225 90.50902828 -30.92235761 98.75444086 -31 107 C-40.9 107 -50.8 107 -61 107 C-61 72.02 -61 37.04 -61 1 C-51.76 1 -42.52 1 -33 1 C-32.34 3.64 -31.68 6.28 -31 9 C-30.54625 8.278125 -30.0925 7.55625 -29.625 6.8125 C-22.78102433 -0.52033108 -9.55298575 -4.77649287 0 0 Z " fill="#000000" transform="translate(562,495)"/>
<path d="M0 0 C9.57 0 19.14 0 29 0 C29 34.98 29 69.96 29 106 C19.76 106 10.52 106 1 106 C0 105 0 105 -0.12304783 103.23712826 C-0.12212604 102.46374394 -0.12120424 101.69035963 -0.12025452 100.89353943 C-0.12162918 100.00867859 -0.12300385 99.12381775 -0.12442017 98.21214294 C-0.12082489 97.23391068 -0.11722961 96.25567841 -0.11352539 95.24780273 C-0.11367142 94.2235318 -0.11381744 93.19926086 -0.1139679 92.14395142 C-0.11326828 88.74047771 -0.10547363 85.33705796 -0.09765625 81.93359375 C-0.09579224 79.58089732 -0.09436826 77.2282005 -0.09336853 74.87550354 C-0.08954199 68.66943295 -0.07971055 62.4633856 -0.06866455 56.25732422 C-0.05845334 49.93001622 -0.05387154 43.60270448 -0.04882812 37.27539062 C-0.0380884 24.85024854 -0.02049051 12.42512983 0 0 Z " fill="#000000" transform="translate(747,496)"/>
<path d="M0 0 C4.17976549 4.39975315 5.30802405 7.85961128 5.21875 13.94140625 C4.67518351 19.05675515 1.82914659 22.76915757 -2 26 C-7.46209997 27.82069999 -14.60731751 28.22849479 -20.08203125 26.24609375 C-23.69114 23.91616279 -26.51332346 20.83889806 -27.6171875 16.66796875 C-28.22791571 10.79202308 -28.06986439 7.11644065 -25 2 C-18.03076354 -4.79053809 -8.24582637 -4.68880323 0 0 Z " fill="#000000" transform="translate(773,457)"/>
</svg>
